#!OML:ASF X:\für Bonn\!DataBase\2005_08_11_Bastian_Final\c3d\Bastian.ASF
:FULLY-SPECIFIED
:DEGREES
49
root -3.15191 17.1072 2.44932 140.739 -16.6915 -167.715
lowerback 43.1825 -7.69993 4.58755
upperback 12.6103 -13.1548 3.49238
thorax -5.57186 -8.80282 6.81979
lowerneck -9.57749 -4.43429 -4.34502
upperneck -5.85081 -4.82934 7.91485
head 0.123498 -2.04281 3.14969
rclavicle -1.50579e-014 1.45113e-014
rhumerus -73.687 36.0073 -124.141
rradius 39.2715
rwrist -39.6259
rhand -36.937 -0.384675
rfingers 7.12502
rthumb -10.0139 -30.1264
lclavicle -1.50579e-014 1.45113e-014
lhumerus 35.2205 -22.7688 78.1672
lradius 105.581
lwrist -15.8779
lhand -57.8548 -11.6896
lfingers 7.12502
lthumb -30.1074 15.8781
rfemur -93.2584 -15.4957 32.101
rtibia 138.508
rfoot 7.82202 6.26407
rtoes -9.65472
lfemur 28.6102 -3.22815 -11.9186
ltibia 26.5429
lfoot -10.1806 -13.3814
ltoes -4.84238
50
root -3.14967 17.1117 2.45356 140.301 -16.8839 -167.561
lowerback 43.8557 -7.68413 4.4318
upperback 12.6689 -13.2659 3.5241
thorax -5.64595 -8.90803 7.0446
lowerneck -9.73198 -4.43996 -4.41478
upperneck -5.94719 -4.79972 8.07497
head 0.124389 -2.0151 3.21753
rclavicle 4.81556e-014 -5.18828e-014
rhumerus -74.0932 36.0269 -124.714
rradius 39.3094
rwrist -39.9325
rhand -36.8442 -0.539002
rfingers 7.12502
rthumb -9.92434 -30.2851
lclavicle 4.81556e-014 -5.18828e-014
lhumerus 35.6615 -23.1161 78.1468
lradius 105.781
lwrist -16.079
lhand -57.9679 -11.478
lfingers 7.12502
lthumb -30.2153 16.0701
rfemur -94.8392 -15.1278 32.6122
rtibia 138.472
rfoot 7.35713 6.03755
rtoes -9.75065
lfemur 29.0641 -3.33351 -11.792
ltibia 26.259
lfoot -9.9558 -13.5919
ltoes -4.85113
51
root -3.14631 17.1162 2.45731 139.893 -17.0762 -167.43
lowerback 44.4873 -7.65058 4.25669
upperback 12.7373 -13.3653 3.5353
thorax -5.69716 -9.00579 7.24509
lowerneck -9.85382 -4.44579 -4.43542
upperneck -6.09281 -4.76909 8.2405
head 0.102356 -1.98735 3.27921
rclavicle 6.2319e-014 -2.70347e-014
rhumerus -74.456 36.0517 -125.316
rradius 39.327
rwrist -40.1845
rhand -36.726 -0.802139
rfingers 7.12502
rthumb -9.81029 -30.5536
lclavicle 6.2319e-014 -2.70347e-014
lhumerus 36.0797 -23.4554 78.1208
lradius 105.884
lwrist -16.3036
lhand -58.0494 -11.3326
lfingers 7.12502
lthumb -30.293 16.2012
rfemur -96.1416 -14.7601 33.0482
rtibia 138.325
rfoot 6.67026 5.75112
rtoes -9.80786
lfemur 29.4946 -3.43834 -11.6924
ltibia 25.977
lfoot -9.72434 -13.7671
ltoes -4.80392
52
root -3.14452 17.1212 2.46065 139.536 -17.2716 -167.3
lowerback 45.0265 -7.65101 4.13967
upperback 12.7941 -13.4737 3.53133
thorax -5.74391 -9.09835 7.39583
lowerneck -9.9512 -4.46771 -4.59616
upperneck -6.23312 -4.74737 8.48718
head 0.0852812 -1.96162 3.39578
rclavicle -1.26676e-013 1.25234e-013
rhumerus -74.7299 36.0185 -125.792
rradius 39.2663
rwrist -40.3348
rhand -36.4928 -1.03818
rfingers 7.12502
rthumb -9.58531 -30.8001
lclavicle -1.26676e-013 1.25234e-013
lhumerus 36.3978 -23.8074 78.1669
lradius 105.915
lwrist -16.5921
lhand -58.1536 -11.2694
lfingers 7.12502
lthumb -30.3923 16.2461
rfemur -97.2333 -14.4378 33.4424
rtibia 138.083
rfoot 5.78492 5.38218
rtoes -9.61462
lfemur 29.8552 -3.52012 -11.5838
ltibia 25.7298
lfoot -9.51987 -13.9749
ltoes -4.69541
53
root -3.14269 17.1231 2.46413 139.195 -17.4529 -167.187
lowerback 45.5626 -7.63472 4.01734
upperback 12.8404 -13.5606 3.53569
thorax -5.79826 -9.17915 7.55016
lowerneck -10.0657 -4.50644 -4.77111
upperneck -6.34436 -4.74917 8.73015
head 0.0824289 -1.94724 3.51286
rclavicle 4.41302e-014 -4.63168e-014
rhumerus -74.9539 35.9833 -126.217
rradius 39.1726
rwrist -40.3684
rhand -36.2014 -1.36631
rfingers 7.12502
rthumb -9.30413 -31.141
lclavicle 4.41302e-014 -4.63168e-014
lhumerus 36.6635 -24.1277 78.2627
lradius 105.915
lwrist -16.9303
lhand -58.207 -11.1861
lfingers 7.12502
lthumb -30.4433 16.32
rfemur -98.1676 -14.123 33.7801
rtibia 137.802
rfoot 4.84393 4.91526
rtoes -9.60206
lfemur 30.1879 -3.60966 -11.508
ltibia 25.5305
lfoot -9.34054 -14.1307
ltoes -4.64895
54
root -3.14064 17.1231 2.46679 138.887 -17.6124 -167.05
lowerback 46.0135 -7.62712 3.94555
upperback 12.8982 -13.6369 3.53081
thorax -5.82501 -9.25138 7.65383
lowerneck -10.1652 -4.54909 -4.94075
upperneck -6.45952 -4.75577 8.98503
head 0.0763842 -1.9353 3.6338
rclavicle -3.25261e-014 5.14852e-014
rhumerus -75.108 35.9382 -126.633
rradius 39.0511
rwrist -40.3655
rhand -35.904 -1.67591
rfingers 7.12502
rthumb -9.01712 -31.4632
lclavicle -3.25261e-014 5.14852e-014
lhumerus 36.9059 -24.4308 78.3639
lradius 105.838
lwrist -17.2161
lhand -58.2237 -11.1881
lfingers 7.12502
lthumb -30.4593 16.315
rfemur -98.9643 -13.7981 34.1147
rtibia 137.478
rfoot 3.96732 4.38933
rtoes -10.0769
lfemur 30.4543 -3.65207 -11.349
ltibia 25.3831
lfoot -9.15382 -14.3674
ltoes -4.33426
55
root -3.13852 17.1225 2.46957 138.599 -17.7849 -166.951
lowerback 46.4361 -7.59824 3.83806
upperback 12.953 -13.6988 3.52874
thorax -5.84329 -9.31547 7.76808
lowerneck -10.2603 -4.60802 -5.13001
upperneck -6.56743 -4.784 9.22941
head 0.0738692 -1.93429 3.7545
rclavicle -3.63527e-014 2.127e-014
rhumerus -75.2509 35.9192 -127.042
rradius 38.9021
rwrist -40.3033
rhand -35.63 -1.97186
rfingers 7.12502
rthumb -8.75278 -31.7704
lclavicle -3.63527e-014 2.127e-014
lhumerus 37.1367 -24.7053 78.4975
lradius 105.726
lwrist -17.4438
lhand -58.1518 -11.3298
lfingers 7.12502
lthumb -30.3907 16.1861
rfemur -99.6497 -13.5215 34.3836
rtibia 137.145
rfoot 3.16971 3.91073
rtoes -10.7157
lfemur 30.6948 -3.70914 -11.2614
ltibia 25.265
lfoot -9.0169 -14.5645
ltoes -4.20018
56
root -3.13566 17.123 2.473 138.386 -17.9439 -166.87
lowerback 46.7725 -7.57013 3.7274
upperback 12.9945 -13.7492 3.51477
thorax -5.85885 -9.36458 7.85839
lowerneck -10.2819 -4.65848 -5.32379
upperneck -6.70686 -4.80075 9.48947
head 0.0483134 -1.92962 3.88428
rclavicle 2.32578e-014 -5.86415e-014
rhumerus -75.374 35.8998 -127.447
rradius 38.7308
rwrist -40.1937
rhand -35.3534 -2.21038
rfingers 7.12502
rthumb -8.48579 -32.0199
lclavicle 2.32578e-014 -5.86415e-014
lhumerus 37.3133 -24.9527 78.6189
lradius 105.6
lwrist -17.6128
lhand -58.0502 -11.3912
lfingers 7.12502
lthumb -30.2937 16.1425
rfemur -100.267 -13.2477 34.6427
rtibia 136.796
rfoot 2.44412 3.46547
rtoes -10.7586
lfemur 30.8216 -3.73583 -11.1717
ltibia 25.2387
lfoot -8.89612 -14.7477
ltoes -4.02877
57
root -3.13298 17.1262 2.47676 138.184 -18.0906 -166.771
lowerback 47.9479 -7.64968 3.80624
upperback 12.0807 -13.7832 3.63984
thorax -5.83077 -9.42627 7.82985
lowerneck -10.3492 -4.71869 -5.49369
upperneck -6.82669 -4.83037 9.75264
head 0.0375529 -1.92968 4.00975
rclavicle 3.60732e-014 2.07233e-014
rhumerus -75.4565 35.9446 -127.861
rradius 38.5568
rwrist -40.1674
rhand -35.1474 -2.27952
rfingers 7.12502
rthumb -8.28707 -32.097
lclavicle 3.60732e-014 2.07233e-014
lhumerus 37.5019 -25.1812 78.7261
lradius 105.451
lwrist -17.6714
lhand -57.9098 -11.7055
lfingers 7.12502
lthumb -30.1598 15.8527
rfemur -100.769 -13.0387 34.892
rtibia 136.449
rfoot 1.81916 3.09055
rtoes -10.3251
lfemur 30.861 -3.7738 -11.0649
ltibia 25.3635
lfoot -8.8872 -14.9523
ltoes -3.90402
58
root -3.13078 17.1174 2.47774 138.025 -18.2089 -166.689
lowerback 48.1491 -7.60754 3.73332
upperback 12.156 -13.8121 3.62386
thorax -5.76898 -9.46784 7.86123
lowerneck -10.3956 -4.77707 -5.62114
upperneck -6.97723 -4.85863 9.98866
head 0.0108459 -1.93023 4.11854
rclavicle 5.05371e-014 -6.93324e-014
rhumerus -75.4463 35.9912 -128.18
rradius 38.3892
rwrist -40.0311
rhand -34.9815 -2.29932
rfingers 7.12502
rthumb -8.12687 -32.123
lclavicle 5.05371e-014 -6.93324e-014
lhumerus 37.7213 -25.381 78.7784
lradius 105.271
lwrist -17.6795
lhand -57.7516 -11.9252
lfingers 7.12502
lthumb -30.0089 15.6605
rfemur -101.082 -12.8748 35.1209
rtibia 136.123
rfoot 1.18525 2.80429
rtoes -9.55784
lfemur 30.8136 -3.76212 -10.9433
ltibia 25.632
lfoot -8.97369 -15.1782
ltoes -3.90924
59
root -3.12798 17.0981 2.47741 137.898 -18.3399 -166.635
lowerback 48.3241 -7.55531 3.61661
upperback 12.218 -13.8382 3.60497
thorax -5.71495 -9.50306 7.90743
lowerneck -10.4121 -4.82712 -5.74241
upperneck -7.10215 -4.88251 10.222
head -0.0132252 -1.93084 4.22609
rclavicle 2.50034e-014 -5.43179e-014
rhumerus -75.4767 36.0917 -128.53
rradius 38.2591
rwrist -39.9824
rhand -34.9276 -2.21912
rfingers 7.12502
rthumb -8.07492 -32.0448
lclavicle 2.50034e-014 -5.43179e-014
lhumerus 37.8888 -25.5596 78.8103
lradius 105.04
lwrist -17.6112
lhand -57.6272 -12.2175
lfingers 7.12502
lthumb -29.8902 15.3896
rfemur -101.207 -12.8132 35.2998
rtibia 135.833
rfoot 0.598265 2.62027
rtoes -8.53723
lfemur 30.6949 -3.76634 -10.8666
ltibia 25.9982
lfoot -9.10619 -15.3847
ltoes -3.84389
60
root -3.12523 17.0821 2.47853 137.805 -18.4389 -166.575
lowerback 48.4376 -7.51422 3.54947
upperback 12.2835 -13.8488 3.5643
thorax -5.65931 -9.52361 7.8971
lowerneck -10.3888 -4.88106 -5.80614
upperneck -7.26871 -4.91363 10.4348
head -0.0597497 -1.93709 4.31608
rclavicle 7.06183e-014 -8.53283e-014
rhumerus -75.4744 36.1839 -128.88
rradius 38.1167
rwrist -39.9458
rhand -34.974 -2.03909
rfingers 7.12502
rthumb -8.11964 -31.8631
lclavicle 7.06183e-014 -8.53283e-014
lhumerus 38.0522 -25.772 78.7895
lradius 104.807
lwrist -17.4501
lhand -57.5051 -12.4196
lfingers 7.12502
lthumb -29.7737 15.2084
rfemur -101.256 -12.8146 35.4773
rtibia 135.594
rfoot 0.281531 2.54256
rtoes -6.66705
lfemur 30.5137 -3.74564 -10.7601
ltibia 26.4102
lfoot -9.26563 -15.6005
ltoes -3.7729
